
<svg width="269.88mm" height="243.68mm" version="1.1" viewBox="0 0 269.88 243.68" xmlns="http://www.w3.org/2000/svg" xmlns:cc="http://creativecommons.org/ns#" xmlns:dc="http://purl.org/dc/elements/1.1/" xmlns:rdf="http://www.w3.org/1999/02/22-rdf-syntax-ns#" xmlns:xlink="http://www.w3.org/1999/xlink">

 <g>
  <path d="m98.67 218.66s-47.368-39.498-67.928-66.937c-21.828-29.13-33.335-53.189-29.914-86.602 3.6369-35.533 28.26-53.715 40.984-60.656 23.354-11.558 44.659 2.8941 57.109 15.374 4.1857 56.998-0.25039 198.82-0.25039 198.82z" fill="#fd7a8e"/>
  <path d="m144.62 132.55s19.176-27.439 46.273-44.787c14.399-9.2185 46.603-10.581 59.329-0.17189 26.066 23.236 26.804 57.943-6.6016 80.494-7.4374 5.4541-19.926 18.49-36.932 23.514-20.513-15.311-62.068-59.05-62.068-59.05z" fill="#fd7a8e"/>
  <path d="m123.96 232.27 4.7924-72.845s16.886 22.576 53.036 54.953c-11.959 10.317-30.533 19.58-45.688 29.394-1.7164-3.0756-12.141-11.502-12.141-11.502z" fill="#fd7a8e"/>
  <path d="m121.8 48.969s-2.7552 34.385 3.0533 62.696c23.697-14.436 56.018-43.002 70.451-41.515-7.0603-4.6359-20.522-7.4552-25.351-7.5993-2.5409 2.4171-8.9888 6.2999-15.633 11.788-6.2044-1.6438-22.452-6.6765-22.452-6.6765l-2.2636-15.633c-7.5339-7.5237-7.8046-3.0595-7.8046-3.0595zm9.6135 29.707s9.9132 3.17 15.087 4.2141l-15.299 12z" fill="#fd7a8e"/>
 </g>
</svg>
