<svg width="83" height="34" viewBox="0 0 83 34" fill="none" xmlns="http://www.w3.org/2000/svg">
<path d="M10.9825 3.39471C10.5935 3.78383 10.375 4.31152 10.375 4.86173C10.375 5.41195 10.5935 5.93964 10.9825 6.32876L21.2538 16.6L10.9825 26.8713C10.6046 27.2626 10.3954 27.7868 10.4001 28.3308C10.4049 28.8749 10.6231 29.3953 11.0078 29.78C11.3925 30.1648 11.913 30.383 12.457 30.3877C13.0011 30.3924 13.5252 30.1833 13.9166 29.8053L25.6549 18.067C26.0439 17.6779 26.2624 17.1502 26.2624 16.6C26.2624 16.0498 26.0439 15.5221 25.6549 15.133L13.9166 3.39471C13.5275 3.00571 12.9998 2.78718 12.4496 2.78718C11.8993 2.78718 11.3717 3.00571 10.9825 3.39471Z" fill="#6DAD04" fill-opacity="0.5"/>
<path d="M27.5821 3.39471C27.1931 3.78383 26.9746 4.31152 26.9746 4.86173C26.9746 5.41195 27.1931 5.93964 27.5821 6.32876L37.8534 16.6L27.5821 26.8713C27.2042 27.2626 26.995 27.7868 26.9997 28.3308C27.0045 28.8749 27.2227 29.3953 27.6074 29.78C27.9921 30.1648 28.5126 30.383 29.0566 30.3877C29.6007 30.3924 30.1248 30.1833 30.5162 29.8053L42.2545 18.067C42.6435 17.6779 42.862 17.1502 42.862 16.6C42.862 16.0498 42.6435 15.5221 42.2545 15.133L30.5162 3.39471C30.1271 3.00571 29.5994 2.78718 29.0492 2.78718C28.499 2.78718 27.9713 3.00571 27.5821 3.39471Z" fill="#6DAD04" fill-opacity="0.5"/>
<path d="M44.1818 3.39471C43.7927 3.78383 43.5742 4.31152 43.5742 4.86173C43.5742 5.41195 43.7927 5.93964 44.1818 6.32876L54.453 16.6L44.1818 26.8713C43.8038 27.2626 43.5946 27.7868 43.5994 28.3308C43.6041 28.8749 43.8223 29.3953 44.207 29.78C44.5917 30.1648 45.1122 30.383 45.6562 30.3877C46.2003 30.3924 46.7245 30.1833 47.1158 29.8053L58.8541 18.067C59.2431 17.6779 59.4616 17.1502 59.4616 16.6C59.4616 16.0498 59.2431 15.5221 58.8541 15.133L47.1158 3.39471C46.7267 3.00571 46.199 2.78718 45.6488 2.78718C45.0986 2.78718 44.5709 3.00571 44.1818 3.39471Z" fill="#6DAD04" fill-opacity="0.5"/>
<path d="M60.7833 3.39471C60.3943 3.78383 60.1758 4.31152 60.1758 4.86173C60.1758 5.41195 60.3943 5.93964 60.7833 6.32876L71.0546 16.6L60.7833 26.8713C60.4053 27.2626 60.1962 27.7868 60.2009 28.3308C60.2056 28.8749 60.4239 29.3953 60.8086 29.78C61.1933 30.1648 61.7137 30.383 62.2578 30.3877C62.8019 30.3924 63.326 30.1833 63.7174 29.8053L75.4556 18.067C75.8446 17.6779 76.0632 17.1502 76.0632 16.6C76.0632 16.0498 75.8446 15.5221 75.4556 15.133L63.7174 3.39471C63.3282 3.00571 62.8006 2.78718 62.2503 2.78718C61.7001 2.78718 61.1724 3.00571 60.7833 3.39471Z" fill="#6DAD04" fill-opacity="0.5"/>
</svg>
