<svg width="37" height="41" viewBox="0 0 37 41" fill="none" xmlns="http://www.w3.org/2000/svg">
<path d="M7.4 9.31818H29.6V16.6982L18.5 13.0455L7.4 16.6982M3.589 33.5455H3.7C6.66 33.5455 9.25 31.9055 11.1 29.8182C12.95 31.9055 15.54 33.5455 18.5 33.5455C21.46 33.5455 24.05 31.9055 25.9 29.8182C27.75 31.9055 30.34 33.5455 33.3 33.5455H33.3925L36.9075 21.0777C37.0555 20.6118 37 20.09 36.7965 19.6427C36.556 19.1955 36.1675 18.86 35.6865 18.7109L33.3 17.9282V9.31818C33.3 8.32965 32.9102 7.3816 32.2163 6.6826C31.5224 5.9836 30.5813 5.59091 29.6 5.59091H24.05V0H12.95V5.59091H7.4C6.4187 5.59091 5.47759 5.9836 4.7837 6.6826C4.08982 7.3816 3.7 8.32965 3.7 9.31818V17.9282L1.3135 18.7109C0.8325 18.86 0.444 19.1955 0.2035 19.6427C-1.9297e-07 20.09 -0.0555001 20.6118 0.0924999 21.0777M33.3 37.2727C30.7285 37.2727 28.157 36.3968 25.9 34.7941C21.386 37.9809 15.614 37.9809 11.1 34.7941C8.843 36.3968 6.2715 37.2727 3.7 37.2727H0V41H3.7C6.2345 41 8.769 40.3477 11.1 39.1364C15.725 41.5591 21.275 41.5591 25.9 39.1364C28.231 40.3477 30.747 41 33.3 41H37V37.2727H33.3Z" fill="black"/>
</svg>
