<svg width="72" height="72" viewBox="0 0 72 72" fill="none" xmlns="http://www.w3.org/2000/svg">
<path d="M72 13.75C72 10.1033 70.5513 6.60591 67.9727 4.02728C65.3941 1.44866 61.8967 0 58.25 0H19.75C16.1033 0 12.6059 1.44866 10.0273 4.02728C7.44865 6.60591 6 10.1033 6 13.75V20.669C10.0674 17.9442 14.8543 16.4928 19.75 16.5C25.646 16.5 31.058 18.5625 35.3095 22H66.5V52.25C66.5 54.438 65.6308 56.5365 64.0836 58.0836C62.5364 59.6308 60.438 60.5 58.25 60.5H50.6655L53.0855 62.92C53.982 63.8165 54.631 64.8725 55.0325 66H58.25C61.8967 66 65.3941 64.5514 67.9727 61.9727C70.5513 59.3941 72 55.8967 72 52.25V13.75ZM19.75 16.5H11.5V13.75C11.5 11.562 12.3692 9.46355 13.9164 7.91637C15.4635 6.3692 17.562 5.5 19.75 5.5H58.25C60.438 5.5 62.5364 6.3692 64.0836 7.91637C65.6308 9.46355 66.5 11.562 66.5 13.75V16.5H19.75ZM31.278 56.6665C27.3804 59.581 22.5235 60.9111 17.6847 60.3889C12.846 59.8668 8.38464 57.5312 5.19852 53.8523C2.01239 50.1733 0.338019 45.4241 0.512367 40.5604C0.686715 35.6967 2.69684 31.0796 6.13821 27.6382C9.57957 24.1969 14.1967 22.1867 19.0604 22.0124C23.9241 21.838 28.6733 23.5124 32.3523 26.6985C36.0312 29.8846 38.3668 34.346 38.8889 39.1847C39.411 44.0235 38.081 48.8804 35.1665 52.778L49.1915 66.803C49.7079 67.3187 49.9983 68.0183 49.9988 68.7481C49.9993 69.4778 49.7099 70.1779 49.1942 70.6943C48.6786 71.2106 47.9789 71.501 47.2492 71.5015C46.5194 71.5021 45.8194 71.2127 45.303 70.697L31.278 56.672V56.6665ZM33.5 41.25C33.5 37.6033 32.0513 34.1059 29.4727 31.5273C26.8941 28.9487 23.3967 27.5 19.75 27.5C16.1033 27.5 12.6059 28.9487 10.0273 31.5273C7.44865 34.1059 6 37.6033 6 41.25C6 44.8967 7.44865 48.3941 10.0273 50.9727C12.6059 53.5514 16.1033 55 19.75 55C23.3967 55 26.8941 53.5514 29.4727 50.9727C32.0513 48.3941 33.5 44.8967 33.5 41.25Z" fill="#00507D"/>
</svg>
