<svg width="68" height="68" viewBox="0 0 68 68" fill="none" xmlns="http://www.w3.org/2000/svg">
<path d="M29.25 48.122C27.6033 47.9394 25.9837 47.5647 24.424 47.0058C24.4715 45.8848 24.5 44.7163 24.5 43.5003V41.8995C25.9725 42.6025 27.5732 43.0918 29.25 43.334V31.6253C29.25 29.7356 30.0007 27.9234 31.3369 26.5872C32.6731 25.251 34.4853 24.5003 36.375 24.5003H48.0838C47.7049 21.8683 46.7003 19.3655 45.1541 17.202C43.608 15.0386 41.5654 13.2776 39.1979 12.0668C36.8304 10.8561 34.2069 10.2309 31.5478 10.2438C28.8887 10.2566 26.2714 10.9072 23.9157 12.1408C23.54 10.5872 22.9212 9.10276 22.0823 7.74229C25.1615 6.20531 28.5664 5.43459 32.0074 5.49565C35.4484 5.5567 38.8238 6.44773 41.8466 8.09298C44.8694 9.73822 47.4503 12.089 49.3698 14.9456C51.2893 17.8021 52.4906 21.0799 52.8717 24.5003H60.125C62.0147 24.5003 63.8269 25.251 65.1631 26.5872C66.4993 27.9234 67.25 29.7356 67.25 31.6253V55.3753C67.25 57.265 66.4993 59.0772 65.1631 60.4134C63.8269 61.7496 62.0147 62.5003 60.125 62.5003H36.375C34.4853 62.5003 32.6731 61.7496 31.3369 60.4134C30.0007 59.0772 29.25 57.265 29.25 55.3753V48.122ZM52.8717 29.2503C52.332 34.0696 50.1703 38.5624 46.7412 41.9915C43.3121 45.4206 38.8193 47.5823 34 48.122V55.3753C34 56.0052 34.2502 56.6093 34.6956 57.0547C35.141 57.5001 35.7451 57.7503 36.375 57.7503H60.125C60.7549 57.7503 61.359 57.5001 61.8044 57.0547C62.2498 56.6093 62.5 56.0052 62.5 55.3753V31.6253C62.5 30.9954 62.2498 30.3913 61.8044 29.9459C61.359 29.5005 60.7549 29.2503 60.125 29.2503H52.8717ZM48.0838 29.2503H36.375C35.7451 29.2503 35.141 29.5005 34.6956 29.9459C34.2502 30.3913 34 30.9954 34 31.6253V43.334C37.5529 42.8205 40.8443 41.1714 43.3827 38.633C45.9211 36.0946 47.5702 32.8032 48.0838 29.2503ZM18.7763 31.915C18.2775 30.0815 17.47 28.2433 16.083 26.8325C18.325 24.7093 19.75 21.3273 19.75 17.3753C19.75 14.0645 19.0802 11.7893 17.869 9.97004C17.3315 9.18759 16.7104 8.46607 16.0165 7.81829C15.7506 7.56155 15.4814 7.30819 15.209 7.05829C14.9193 6.78754 14.6533 6.54054 14.3065 6.19379C13.594 5.48129 13.5133 4.91129 13.5133 4.61204C13.514 4.44571 13.5413 4.28056 13.594 4.12279C13.8112 3.65314 13.869 3.12541 13.7588 2.61987C13.6485 2.11432 13.3761 1.65861 12.9831 1.32205C12.5901 0.985483 12.0979 0.786478 11.5814 0.755295C11.0649 0.724112 10.5524 0.862457 10.1217 1.14929L10.1122 1.15404L10.098 1.16354L10.0553 1.19204L9.91275 1.28704C9.20025 1.79525 8.51379 2.33902 7.856 2.91629C6.6685 3.96604 5.12 5.51929 4.02275 7.37179C3.06491 8.90761 2.29617 10.5535 1.73325 12.2738C1.16325 13.979 0.75 15.8268 0.75 17.3753C0.75 21.3273 2.175 24.7045 4.417 26.8373C3.03 28.2433 2.2225 30.0815 1.72375 31.9198C0.75 35.4918 0.75 39.9093 0.75 43.3245V43.5003C0.75 53.2758 2.57875 59.0803 4.64975 62.5336C5.69 64.2626 6.773 65.3788 7.68025 66.0818C8.16367 66.4589 8.68979 66.7777 9.24775 67.0318C9.57042 67.1496 9.90758 67.2231 10.25 67.2503C10.649 67.2503 11.2522 67.0318 11.2522 67.0318C11.8102 66.7777 12.3363 66.4589 12.8197 66.0818C13.7222 65.3788 14.8147 64.2626 15.8502 62.5336C17.9212 59.085 19.75 53.2758 19.75 43.5003V43.3293C19.75 39.9093 19.75 35.4965 18.7763 31.915ZM7.81325 30.1575C8.35 29.616 9.06725 29.2503 10.25 29.2503C11.4375 29.2503 12.15 29.6208 12.6868 30.1528C13.2852 30.756 13.803 31.7345 14.1925 33.1643C14.981 36.0665 15 39.876 15 43.5003C15 52.7248 13.2663 57.6078 11.7748 60.092C11.2048 61.042 10.668 61.6548 10.25 62.0395C9.65276 61.4653 9.13946 60.8096 8.72525 60.092C7.23375 57.6031 5.5 52.7248 5.5 43.5003C5.5 39.876 5.519 36.0665 6.3075 33.1643C6.697 31.7393 7.21475 30.756 7.81325 30.1528V30.1575ZM10.25 24.5003C8.42125 24.5003 5.5 22.4673 5.5 17.3753C5.5 16.5535 5.747 15.252 6.241 13.7795C6.69117 12.3894 7.31181 11.0604 8.08875 9.82279C8.502 9.12454 9.03875 8.44529 9.61825 7.82304C9.946 8.40254 10.3783 8.98679 10.9483 9.55679C11.295 9.90354 11.7462 10.3215 12.131 10.6825L12.72 11.2335C13.2188 11.718 13.6035 12.1408 13.9122 12.611C14.4822 13.4613 15 14.7485 15 17.3753C15 22.4673 12.0787 24.5003 10.25 24.5003Z" fill="#00507D"/>
</svg>
