<svg width="16" height="16" viewBox="0 0 16 16" fill="none" xmlns="http://www.w3.org/2000/svg">
<g clip-path="url(#clip0_1_8)">
<path d="M3.40688 10.0899C3.40688 11.0061 2.65963 11.7545 1.74325 11.7545C0.826876 11.7545 0.0787506 11.0061 0.0787506 10.0899C0.0787506 9.17364 0.827126 8.42526 1.74338 8.42526H3.407L3.40688 10.0899ZM4.2455 10.0899C4.2455 9.17364 4.99388 8.42526 5.91013 8.42526C6.82638 8.42526 7.57475 9.17351 7.57475 10.0899V14.2568C7.57475 15.173 6.8265 15.9214 5.91013 15.9214C4.99388 15.9214 4.2455 15.173 4.2455 14.2568V10.0899Z" fill="#DE1C59"/>
<path d="M5.91013 3.40686C4.99388 3.40686 4.2455 2.65961 4.2455 1.74324C4.2455 0.82686 4.99388 0.0787354 5.91013 0.0787354C6.82638 0.0787354 7.57475 0.82711 7.57475 1.74336V3.40699L5.91013 3.40686ZM5.91013 4.24549C6.82638 4.24549 7.57475 4.99386 7.57475 5.91011C7.57475 6.82636 6.8265 7.57474 5.91013 7.57474H1.74325C0.827001 7.57474 0.0787506 6.82648 0.0787506 5.91011C0.0787506 4.99386 0.827126 4.24549 1.74338 4.24549H5.91013Z" fill="#35C5F0"/>
<path d="M12.5931 5.91011C12.5931 4.99386 13.3404 4.24549 14.2567 4.24549C15.1731 4.24549 15.9214 4.99386 15.9214 5.91011C15.9214 6.82636 15.173 7.57474 14.2567 7.57474H12.5931V5.91011ZM11.7545 5.91011C11.7545 6.82636 11.0061 7.57474 10.0899 7.57474C9.17362 7.57474 8.42525 6.82648 8.42525 5.91011V1.74324C8.42525 0.826985 9.1735 0.0787354 10.0899 0.0787354C11.0061 0.0787354 11.7545 0.82711 11.7545 1.74336V5.91011Z" fill="#2EB57D"/>
<path d="M10.0899 12.5931C11.0061 12.5931 11.7545 13.3404 11.7545 14.2568C11.7545 15.1731 11.0061 15.9214 10.0899 15.9214C9.17362 15.9214 8.42525 15.173 8.42525 14.2568V12.5931H10.0899ZM10.0899 11.7545C9.17362 11.7545 8.42525 11.0061 8.42525 10.0899C8.42525 9.17364 9.1735 8.42526 10.0899 8.42526H14.2567C15.173 8.42526 15.9214 9.17351 15.9214 10.0899C15.9214 11.0061 15.173 11.7545 14.2567 11.7545H10.0899Z" fill="#EBB02E"/>
</g>
<defs>
<clipPath id="clip0_1_8">
<rect width="16" height="16" fill="white"/>
</clipPath>
</defs>
</svg>
