<svg width="51" height="36" viewBox="0 0 51 36" fill="none" xmlns="http://www.w3.org/2000/svg">
<path d="M49.8212 14.0429C49.2655 12.9999 48.2501 11.4143 46.5735 9.79065C44.8283 8.1202 42.8356 6.79863 40.6842 5.88464L39.6231 7.94638C38.0828 10.8941 37.2708 14.2418 37.2693 17.6505C37.2678 21.0592 38.0769 24.4078 39.6146 27.3571L40.7307 29.4231C42.8597 28.5201 44.8332 27.2171 46.565 25.5709C49.58 22.6699 51.0001 19.031 51.0001 17.6586C51.0001 16.3591 50.2401 14.8357 49.8212 14.0429ZM41.881 17.6586C41.5804 17.6586 41.2866 17.5596 41.0367 17.374C40.7867 17.1884 40.5919 16.9246 40.4769 16.6159C40.3619 16.3073 40.3318 15.9677 40.3904 15.64C40.449 15.3124 40.5938 15.0114 40.8063 14.7752C41.0189 14.539 41.2897 14.3781 41.5845 14.3129C41.8793 14.2477 42.1849 14.2812 42.4627 14.409C42.7404 14.5369 42.9777 14.7534 43.1447 15.0311C43.3117 15.3089 43.4009 15.6355 43.4009 15.9695C43.4009 16.4175 43.2407 16.8471 42.9557 17.1639C42.6707 17.4807 42.2841 17.6586 41.881 17.6586Z" fill="black"/>
<path d="M35.3297 17.6538C35.3284 13.8486 36.3851 10.1109 38.3924 6.8208L39.195 5.49075C37.5127 5.10945 35.7985 4.86947 34.0722 4.77356C31.7615 3.07839 28.3175 1.06726 24.3469 0.427304L21.9066 0L23.3148 6.20493C18.9261 7.62325 15.0545 10.504 12.492 12.4861C11.9963 12.0909 11.4775 11.7047 10.9354 11.3275C6.75314 8.41868 2.23595 8.13782 2.04637 8.12779L0 8.02448L0.281205 9.96138C0.311748 10.162 0.99633 14.4481 3.61459 17.6368C0.99633 20.8265 0.315961 25.1096 0.281205 25.3132L0 27.2832L2.04637 27.1468C2.23595 27.1368 6.75314 26.8569 10.9354 23.947C11.4676 23.5772 11.9788 23.1971 12.4689 22.8066C15.0355 24.7956 18.9082 27.6814 23.3021 29.0998L21.9066 35.3077L24.3469 34.8844C28.2954 34.2485 31.7278 32.2363 34.0364 30.5391C35.7868 30.4427 37.5249 30.2001 39.2308 29.8139L38.3977 28.4919C36.388 25.2007 35.3294 21.4612 35.3297 17.6538Z" fill="black"/>
</svg>
