<svg width="72" height="69" viewBox="0 0 72 69" fill="none" xmlns="http://www.w3.org/2000/svg">
<path d="M12.4583 0.165039L8.85031 3.76791L14.2188 9.13379L17.8216 5.53091L12.4557 0.165039H12.4583ZM59.5443 0.165039L54.1758 5.53091L57.7812 9.13379L63.1471 3.77048L59.5417 0.165039H59.5443ZM36 1.76404C35.1544 1.77429 34.2985 1.82298 33.4375 1.92804C33.4119 1.92804 33.3862 1.92291 33.3606 1.92804C22.9671 3.1196 14.6954 11.5169 13.2578 21.8643C12.1098 30.1924 15.5436 37.7441 21.2656 42.6077C23.6062 44.6053 25.1894 47.3465 25.75 50.3721V65.7471H31.5925C32.4842 67.2769 34.1114 68.3096 36 68.3096C37.8886 68.3096 39.5157 67.2769 40.4075 65.7471H46.25V55.4971H46.4909V52.4529C46.4909 48.6962 48.4435 44.9089 51.6159 41.9645C55.8594 37.7159 59.0625 31.6812 59.0625 24.7497C59.0625 12.0909 48.6434 1.64616 36 1.76404ZM36 6.88904C45.9041 6.75067 53.9375 14.8584 53.9375 24.7497C53.9375 30.1155 51.4519 34.8408 48.0104 38.2797L48.0924 38.3617C44.6725 41.5154 42.461 45.7642 41.8399 50.3747H30.6316C30.0678 45.9825 28.1844 41.7314 24.6251 38.682C20.0971 34.8382 17.3988 29.047 18.3008 22.5075C19.4206 14.4356 25.9704 7.94479 33.9961 7.0556C34.6587 6.96322 35.3261 6.90847 35.9949 6.8916L36 6.88904ZM0.125 24.7497V29.8747H7.8125V24.7497H0.125ZM64.1875 24.7497V29.8747H71.875V24.7497H64.1875ZM14.2188 45.4905L8.85288 50.8539L12.4583 54.4593L17.8191 49.0934L14.2188 45.4905ZM57.7812 45.4905L54.1784 49.0934L59.5417 54.4593L63.1471 50.8539L57.7812 45.4905ZM30.875 55.4997H41.125V60.6247H30.875V55.4997Z" fill="#6DAD04"/>
</svg>
