<svg width="47" height="41" viewBox="0 0 47 41" fill="none" xmlns="http://www.w3.org/2000/svg">
<path d="M41.125 41C39.1079 41 37.0908 40.5119 35.25 39.5357C31.5487 41.4881 27.2013 41.4881 23.5 39.5357C19.7987 41.4881 15.4513 41.4881 11.75 39.5357C9.88958 40.5119 7.89208 41 5.875 41H3.91667V37.0952H5.875C7.91167 37.0952 9.94833 36.4119 11.75 35.1429C15.3338 37.681 19.9163 37.681 23.5 35.1429C27.0837 37.681 31.6663 37.681 35.25 35.1429C37.0321 36.4119 39.0883 37.0952 41.125 37.0952H43.0833V41H41.125ZM23.5 6.83333C21.3458 6.83333 19.5833 8.59048 19.5833 10.7381C19.5833 12.8857 21.3458 14.6429 23.5 14.6429C25.6542 14.6429 27.4167 12.8857 27.4167 10.7381C27.4167 8.59048 25.6542 6.83333 23.5 6.83333ZM47 30.2619C47 30.2619 44.0233 31.6481 39.3037 32.9367C37.6979 32.4876 36.3075 31.4724 35.25 30.2619C33.8204 31.9019 31.725 33.1905 29.375 33.1905C27.025 33.1905 24.9296 31.9019 23.5 30.2619C22.0704 31.9019 19.975 33.1905 17.625 33.1905C15.275 33.1905 13.1796 31.9019 11.75 30.2619C10.6925 31.4529 9.30208 32.4681 7.69625 32.9367C2.97667 31.6481 0 30.2619 0 30.2619C0 30.2619 5.73792 27.6067 13.9629 26.201L16.6067 18.0595C17.2137 16.2048 19.1917 15.1895 21.0521 15.7948C21.2283 15.8533 21.4242 15.9314 21.5808 16.0095L26.4179 18.5476L31.9796 15.619L35.2108 8.37571L34.2121 5.79857L36.8167 0L43.0833 2.7919L40.4788 8.59048L37.9133 9.56667L30.6283 25.8495C40.1263 27.0795 47 30.2619 47 30.2619ZM29.4142 21.3981L26.4375 22.96L23.0104 21.1638L21.62 25.4005C22.2467 25.4005 22.8733 25.381 23.5 25.381C24.8904 25.381 26.2417 25.4395 27.5537 25.5371L29.4142 21.3981Z" fill="black"/>
</svg>
