<svg width="38" height="42" viewBox="0 0 38 42" fill="none" xmlns="http://www.w3.org/2000/svg">
<path d="M1.90572 23.8523L17.1515 1.96543V23.8523H1.90572ZM20.01 23.8523C22.5827 16.6966 22.2397 7.07936 20.01 0C29.0812 2.9386 36.0181 14.1206 36.1324 23.8523H20.01ZM36.3992 30.6836C35.6179 31.9048 34.7031 32.9543 33.6359 33.8512C32.3972 33.2978 31.2919 32.4391 30.4152 31.485C27.5757 35.1678 21.8395 35.1678 19 31.485C16.1986 35.1678 10.4243 35.1678 7.62287 31.485C6.67001 32.4391 5.62187 33.2978 4.38315 33.8512C2.21063 32.0575 0.571715 29.5005 0 26.7146H38C37.7039 28.1216 37.162 29.4653 36.3992 30.6836ZM36.1324 41.98C34.1123 41.98 32.2066 41.503 30.4152 40.5489C26.9087 42.4571 22.5065 42.4571 19 40.5489C15.4935 42.4571 11.0913 42.4571 7.62287 40.5489C5.27884 41.8655 2.59178 42.0754 0 41.98V38.1637C2.68706 38.2591 5.27884 37.9728 7.62287 36.2555C10.9388 38.6407 15.6459 38.6407 19 36.2555C22.3731 38.6407 27.0612 38.6407 30.4152 36.2555C32.7212 37.9728 35.332 38.2591 38 38.1637V41.98H36.1324Z" fill="black"/>
</svg>
