<svg width="78" height="78" viewBox="0 0 78 78" fill="none" xmlns="http://www.w3.org/2000/svg">
<path d="M48.491 8.52422C43.0599 6.61376 37.2356 6.09974 31.5538 7.02945C25.8721 7.95916 20.5154 10.3027 15.9764 13.8446C11.4375 17.3864 7.86211 22.0128 5.57919 27.2982C3.29626 32.5835 2.37911 38.3581 2.9121 44.0907C3.44508 49.8233 5.41109 55.3298 8.62927 60.1037C11.8474 64.8776 16.2144 68.7655 21.3285 71.4099C26.4426 74.0543 32.1396 75.3701 37.8954 75.2365C43.6511 75.1028 49.2808 73.5238 54.2667 70.6448C63.7618 65.1629 70.2164 55.4695 71.4334 44.7269M29.4703 33.2824H29.5084M44.7296 25.6528H44.7677" stroke="#00507D" stroke-width="5" stroke-linecap="round" stroke-linejoin="round"/>
<path d="M37.0999 52.3565C40.9147 47.2701 44.7295 44.7269 48.5443 44.7269M67.6185 29.4676V29.5057M67.6185 18.0231C69.3286 18.0177 70.9875 17.4386 72.3297 16.3787C73.6718 15.3188 74.6196 13.8393 75.0213 12.177C75.4231 10.5147 75.2555 8.76564 74.5455 7.20981C73.8356 5.65397 72.6241 4.38129 71.1052 3.59544C69.5876 2.81802 67.8516 2.57698 66.1795 2.91152C64.5075 3.24606 62.9979 4.13651 61.8962 5.438" stroke="#00507D" stroke-width="5" stroke-linecap="round" stroke-linejoin="round"/>
</svg>
